<svg width="32" height="32" viewBox="0 0 32 32" fill="none" xmlns="http://www.w3.org/2000/svg">
  <!-- Pot -->
  <path d="M9 19h14l-1.5 9a2 2 0 01-2 1.5h-7A2 2 0 0110.5 28L9 19z" fill="#C9956F"/>
  <rect x="7" y="17" width="18" height="3" rx="1.5" fill="#D4A574"/>
  <!-- Leaf left -->
  <path d="M16 17C12 14 8 10 10 5c4 0 7 4 6 12z" fill="#2D4739"/>
  <!-- Leaf right -->
  <path d="M16 17C20 14 24 10 22 5c-4 0-7 4-6 12z" fill="#3D6B4F"/>
  <!-- Stem -->
  <line x1="16" y1="5" x2="16" y2="17" stroke="#2D4739" stroke-width="1.5"/>
  <!-- Small leaf -->
  <ellipse cx="13" cy="11" rx="2" ry="3.5" fill="#4A8B60" transform="rotate(-30 13 11)"/>
  <ellipse cx="19" cy="11" rx="2" ry="3.5" fill="#4A8B60" transform="rotate(30 19 11)"/>
</svg>